<svg width="350" height="350" viewBox="0 0 350 350" fill="none" xmlns="http://www.w3.org/2000/svg">
<path fill-rule="evenodd" clip-rule="evenodd" d="M175 350C271.65 350 350 271.65 350 175C350 78.3502 271.65 0 175 0C78.3502 0 0 78.3502 0 175C0 271.65 78.3502 350 175 350ZM168.671 86.7362C170.152 85.4856 171.763 84.3069 173.502 83.2C185.236 75.6 200.102 71.8 218.102 71.8C229.702 71.8 239.902 73.2 248.702 76C263.769 81.0667 273.769 89.8667 278.702 102.4C280.302 106.8 281.102 110.4 281.102 113.2V118.6C280.569 125.933 277.836 133.133 272.902 140.2C268.102 147.267 260.836 152.133 251.102 154.8C256.969 156 260.969 158.533 263.102 162.4C265.236 166.267 266.369 172.133 266.502 180C266.636 193.467 267.236 201.667 268.302 204.6C269.502 207.4 271.902 208.8 275.502 208.8C285.236 208.8 293.169 199.533 299.302 181L305.702 190.8C299.169 213.733 285.636 225.2 265.102 225.2C260.436 225.2 256.369 224.333 252.902 222.6C249.569 220.867 247.036 218.8 245.302 216.4C243.569 214 242.169 210.933 241.102 207.2C239.636 201.6 238.836 194.2 238.702 185C238.702 175.8 237.569 169.467 235.302 166C233.169 162.533 229.036 160.6 222.902 160.2L225.102 143.2H225.702C233.436 143.2 239.836 141 244.902 136.6C250.369 131.667 253.102 125.333 253.102 117.6C253.102 109.867 249.436 103.333 242.102 98C234.902 92.6667 225.569 90 214.102 90C199.302 90 187.902 93.6667 179.902 101C175.636 105 173.502 109.8 173.502 115.4C173.502 122.467 178.902 126.733 189.702 128.2L186.902 143.2C178.769 142.8 171.569 140.067 165.302 135C159.036 129.933 155.902 123.4 155.902 115.4C155.902 106.848 158.092 99.5144 162.47 93.4001C160.483 93.4162 158.496 94.6829 156.509 97.2C154.509 99.7333 153.175 103.4 152.509 108.2L142.509 178.2C159.309 170.867 170.042 165.4 174.709 161.8L178.201 167.866C181.506 165.904 185.14 164.015 189.102 162.2C193.902 124.867 196.369 105.733 196.502 104.8C202.102 101.2 208.436 99.4 215.502 99.4C218.436 99.4 221.769 99.8 225.502 100.6L212.902 186C208.902 212.133 196.836 225.2 176.702 225.2C169.636 225.2 163.969 223.067 159.702 218.8C155.436 214.533 153.302 209.267 153.302 203C153.302 197.613 154.611 192.519 157.228 187.717C155.364 188.494 153.524 189.255 151.709 190C146.509 192 142.642 193.533 140.109 194.6L133.509 241.4C131.775 254.2 127.175 263.6 119.709 269.6C112.375 275.733 104.242 278.8 95.3086 278.8C86.5086 278.8 79.5086 275.533 74.3086 269C69.1086 262.6 66.5086 255.4 66.5086 247.4C66.5086 226.467 81.8419 207.867 112.509 191.6L114.509 175.4C117.042 152.467 119.642 132.533 122.309 115.6C114.709 118.667 106.709 120.2 98.3086 120.2C90.0419 120.2 83.3086 117.933 78.1086 113.4C73.0419 108.867 70.5086 102.933 70.5086 95.6C70.5086 88.2667 73.1086 82.5333 78.3086 78.4C83.6419 74.1333 90.3086 72 98.3086 72C103.242 72 110.309 73.5333 119.509 76.6C128.842 79.6667 136.042 81.2 141.109 81.2C150.175 81.2 157.775 78.8667 163.909 74.2C166.515 77.8489 168.102 82.0276 168.671 86.7362ZM93.5086 106.2C91.3753 104.733 90.3086 103 90.3086 101C90.3086 97.6667 91.9753 96 95.3086 96C96.3753 96 99.6419 96.8 105.109 98.4C110.575 99.8667 115.909 101.2 121.109 102.4C113.909 106.4 108.042 108.4 103.509 108.4C99.1086 108.4 95.7753 107.667 93.5086 106.2ZM81.7086 245.4C81.7086 232.6 91.2419 220.467 110.309 209L105.509 246.4C104.975 250.8 103.509 254 101.109 256C98.7086 258 95.8419 259 92.5086 259C89.3086 259 86.6419 257.533 84.5086 254.6C82.6419 252.067 81.7086 249 81.7086 245.4ZM174.902 207C170.369 207 168.102 204.867 168.102 200.6C168.102 193.533 174.369 186.333 186.902 179L185.102 192.6C183.636 202.2 180.236 207 174.902 207Z" fill="#D9D9D9"/>
</svg>
