<svg width="350" height="350" viewBox="0 0 350 350" fill="none" xmlns="http://www.w3.org/2000/svg">
<path fill-rule="evenodd" clip-rule="evenodd" d="M332.04 252.312C343.539 228.999 350 202.754 350 175C350 157.794 347.517 141.168 342.89 125.461C342.562 126.598 342.327 127.866 342.188 129.266C339.844 131.609 337.76 134.214 335.938 137.078C334.115 139.812 332.227 142.547 330.273 145.281C328.451 147.885 326.367 150.294 324.023 152.508C321.68 154.721 318.88 156.479 315.625 157.781C315.495 159.083 314.974 160.516 314.062 162.078H309.961C309.57 163.12 308.919 163.901 308.008 164.422L305.273 165.984C304.362 166.505 303.581 167.156 302.93 167.938C302.409 168.719 302.148 169.826 302.148 171.258C301.888 171.128 301.562 171.062 301.172 171.062C299.87 171.062 298.307 171.714 296.484 173.016C294.792 174.318 293.424 175.359 292.383 176.141C290.169 177.703 287.891 179.135 285.547 180.438C283.333 181.74 281.38 183.562 279.688 185.906C274.479 188.12 269.531 190.724 264.844 193.719C260.156 196.583 255.078 198.862 249.609 200.555C247.526 202.768 245.052 204.526 242.188 205.828C239.453 207 236.784 208.302 234.18 209.734V210.32C234.18 211.362 234.57 212.404 235.352 213.445C236.133 214.357 237.044 215.203 238.086 215.984C239.128 216.635 240.234 217.091 241.406 217.352C242.708 217.612 243.815 217.612 244.727 217.352C247.331 219.695 250.326 221.583 253.711 223.016C257.096 224.448 260.612 225.75 264.258 226.922C267.904 228.094 271.484 229.331 275 230.633C278.516 231.935 281.771 233.562 284.766 235.516H289.453C292.448 238.12 295.964 240.073 300 241.375C304.167 242.677 308.138 243.849 311.914 244.891C313.477 246.323 315.43 247.43 317.773 248.211C320.247 248.862 322.591 249.188 324.805 249.188H325.977C326.497 249.188 326.953 249.122 327.344 248.992V249.383C327.344 250.034 327.539 250.49 327.93 250.75L329.102 251.141C329.622 251.141 330.078 251.271 330.469 251.531C330.99 251.661 331.38 251.922 331.641 252.312H332.04ZM320.802 271.816C289.446 318.943 235.85 350 175 350C78.3502 350 0 271.65 0 175C0 153.345 3.93316 132.609 11.1241 113.467C11.738 113.54 12.2618 113.793 12.6953 114.227C13.737 112.924 15.1693 112.078 16.9922 111.688C18.8151 111.297 20.638 110.971 22.4609 110.711C24.4141 110.451 26.237 110.06 27.9297 109.539C29.6224 108.888 30.9245 107.651 31.8359 105.828C34.1797 105.958 36.4583 105.828 38.6719 105.438C40.8854 105.047 43.099 104.591 45.3125 104.07C47.6562 103.419 49.9349 102.833 52.1484 102.312C54.362 101.661 56.6406 101.206 58.9844 100.945C58.9844 100.294 59.0495 99.5781 59.1797 98.7969C59.3099 97.8854 59.7005 97.2344 60.3516 96.8438C61.1328 96.974 61.849 97.1042 62.5 97.2344H64.8438C67.8385 97.2344 70.8333 96.7786 73.8281 95.8672C76.8229 94.9557 79.8177 94.3698 82.8125 94.1094C84.6354 96.3229 86.1328 98.276 87.3047 99.9688C88.6068 101.661 89.2578 104.07 89.2578 107.195C91.4714 109.279 93.2292 111.622 94.5312 114.227C95.8333 116.831 96.875 119.63 97.6562 122.625C99.4792 123.406 100.586 124.708 100.977 126.531C101.497 128.354 101.758 130.112 101.758 131.805C103.19 132.977 104.232 134.474 104.883 136.297C105.534 138.12 106.12 140.073 106.641 142.156L108.203 148.016C108.724 149.969 109.57 151.596 110.742 152.898C110.872 154.591 111.133 156.219 111.523 157.781C112.044 159.214 112.305 160.776 112.305 162.469C112.305 162.729 112.24 162.99 112.109 163.25V164.031C112.24 164.943 112.76 165.398 113.672 165.398C114.583 165.398 115.039 165.854 115.039 166.766C114.648 168.198 114.453 169.63 114.453 171.062C114.453 173.276 114.779 175.49 115.43 177.703C116.081 179.917 116.406 182.13 116.406 184.344C116.406 186.297 115.951 187.924 115.039 189.227C115.69 189.617 116.211 190.529 116.602 191.961C117.122 193.263 117.383 194.305 117.383 195.086C117.383 195.737 117.188 196.193 116.797 196.453C116.406 196.714 116.081 197.104 115.82 197.625C116.862 200.229 117.513 202.898 117.773 205.633C118.164 208.237 118.359 210.906 118.359 213.641C118.359 216.635 118.229 219.63 117.969 222.625C117.839 225.62 117.773 228.615 117.773 231.609C117.773 233.302 117.839 234.995 117.969 236.688C118.099 238.38 118.294 240.073 118.555 241.766C117.904 245.542 117.057 249.318 116.016 253.094C115.104 256.87 114.128 260.646 113.086 264.422C112.826 265.724 112.5 267.091 112.109 268.523C111.849 270.086 111.393 271.453 110.742 272.625C110.482 273.536 109.831 274.188 108.789 274.578C107.878 274.969 106.966 275.164 106.055 275.164C104.232 275.164 102.474 274.773 100.781 273.992C99.0885 273.341 97.526 272.625 96.0938 271.844C95.7031 271.714 95.3125 271.648 94.9219 271.648C94.6615 271.648 94.3359 271.518 93.9453 271.258C91.0807 269.826 88.3464 267.742 85.7422 265.008C83.138 262.273 80.7292 259.669 78.5156 257.195C77.9948 256.544 77.4089 255.958 76.7578 255.438C76.237 254.917 75.7161 254.331 75.1953 253.68C74.4141 252.638 73.6328 251.401 72.8516 249.969C72.2005 248.536 71.0938 247.69 69.5312 247.43C69.7917 246.388 69.7266 245.737 69.3359 245.477C68.9453 245.086 68.75 244.5 68.75 243.719V243.133C68.099 242.742 67.4479 242.417 66.7969 242.156C66.1458 241.766 65.6901 241.18 65.4297 240.398C63.2161 235.451 60.7422 230.633 58.0078 225.945C55.2734 221.128 53.0599 216.18 51.3672 211.102C52.0182 210.451 52.2135 209.474 51.9531 208.172C51.8229 206.87 52.0833 205.958 52.7344 205.438C55.599 205.177 58.5286 205.047 61.5234 205.047C64.6484 204.917 67.513 204.331 70.1172 203.289C73.3724 204.982 76.8229 206.284 80.4688 207.195C84.2448 208.107 87.6302 209.604 90.625 211.688C92.7083 211.036 94.6615 209.93 96.4844 208.367C98.3073 206.674 99.2188 204.721 99.2188 202.508C99.2188 201.076 98.8932 199.708 98.2422 198.406C95.8984 196.583 93.2292 195.216 90.2344 194.305C87.2396 193.263 84.1797 192.352 81.0547 191.57C77.9297 190.659 74.8698 189.747 71.875 188.836C68.8802 187.794 66.276 186.297 64.0625 184.344C63.2812 184.734 62.5651 185.125 61.9141 185.516C61.263 185.906 60.5469 186.232 59.7656 186.492C59.7656 185.841 59.5052 185.451 58.9844 185.32C58.5938 185.19 58.2682 185.125 58.0078 185.125C57.3568 185.125 56.7057 185.255 56.0547 185.516C55.5339 185.646 54.9479 185.711 54.2969 185.711C53.9062 185.711 53.5156 185.646 53.125 185.516C52.7344 185.255 52.6042 184.865 52.7344 184.344C51.8229 185.255 50.7812 185.841 49.6094 186.102C48.5677 186.232 47.4609 186.297 46.2891 186.297H42.3828C41.0807 186.167 39.9089 186.232 38.8672 186.492C37.0443 189.747 35.8073 193.133 35.1562 196.648C34.5052 200.034 34.1797 203.615 34.1797 207.391V211.297C34.1797 212.599 34.3099 213.901 34.5703 215.203C36.263 218.068 37.6953 221.062 38.8672 224.188C40.1693 227.312 41.4062 230.503 42.5781 233.758C43.8802 236.883 45.2474 239.943 46.6797 242.938C48.112 245.932 49.8698 248.797 51.9531 251.531C51.6927 252.573 51.7578 253.224 52.1484 253.484C52.5391 253.615 52.7344 254.005 52.7344 254.656V255.047C54.2969 256.219 55.599 257.521 56.6406 258.953L59.7656 263.641C60.8073 265.333 61.849 266.961 62.8906 268.523C63.9323 270.086 65.2344 271.453 66.7969 272.625C66.5365 273.406 66.7318 273.862 67.3828 273.992C68.0339 274.122 68.3594 274.513 68.3594 275.164C68.3594 275.294 68.2943 275.424 68.1641 275.555V275.945H70.8984C71.6797 277.378 72.5911 278.549 73.6328 279.461C74.6745 280.372 75.7812 281.284 76.9531 282.195L80.4688 284.93C81.6406 285.841 82.6823 286.883 83.5938 288.055C86.1979 289.487 88.9974 290.594 91.9922 291.375C94.987 292.286 97.526 293.719 99.6094 295.672C101.172 295.281 102.669 295.086 104.102 295.086H107.031C107.943 295.216 108.854 295.281 109.766 295.281C110.807 295.281 111.589 295.216 112.109 295.086C114.974 292.221 117.904 289.943 120.898 288.25C124.023 286.557 127.279 284.799 130.664 282.977C131.055 281.284 131.51 279.721 132.031 278.289L133.789 274.188C134.44 272.885 134.961 271.453 135.352 269.891C135.872 268.458 136.133 266.766 136.133 264.812V264.227C136.393 263.576 136.849 263.12 137.5 262.859C138.281 262.729 138.802 262.273 139.062 261.492C138.672 260.451 138.411 259.474 138.281 258.562C138.151 257.781 138.086 256.935 138.086 256.023C138.086 252.638 138.477 249.383 139.258 246.258C140.169 243.003 140.625 239.747 140.625 236.492C140.625 234.279 140.299 231.87 139.648 229.266C140.299 228.354 140.56 227.312 140.43 226.141C140.299 224.839 140.495 223.732 141.016 222.82C139.974 221.909 139.323 220.477 139.062 218.523C139.714 216.701 140.039 214.357 140.039 211.492C140.039 207.326 139.583 203.159 138.672 198.992C137.891 194.695 137.5 190.464 137.5 186.297C137.5 184.474 137.63 182.716 137.891 181.023C138.151 179.201 138.737 177.508 139.648 175.945C138.086 173.732 136.979 171.258 136.328 168.523L134.766 159.93C134.245 156.935 133.659 154.005 133.008 151.141C132.357 148.276 131.25 145.737 129.688 143.523C129.948 142.482 130.078 141.635 130.078 140.984C130.078 138.641 129.492 136.362 128.32 134.148C127.482 132.472 126.944 130.762 126.705 129.019C130.169 128.446 133.246 127.486 135.938 126.141C138.932 124.448 142.057 122.43 145.312 120.086H146.094C146.745 120.086 147.656 120.151 148.828 120.281C150 120.281 150.911 119.956 151.562 119.305C152.344 119.044 152.669 118.458 152.539 117.547C152.409 116.635 152.799 116.049 153.711 115.789L157.031 115.008C157.682 114.747 158.398 114.292 159.18 113.641C159.961 112.99 160.677 112.599 161.328 112.469C162.76 112.078 164.128 111.818 165.43 111.688C166.732 111.427 168.034 110.971 169.336 110.32C172.331 109.148 175.26 107.911 178.125 106.609C181.12 105.307 184.31 104.656 187.695 104.656H189.258C191.081 102.964 193.294 101.792 195.898 101.141C198.633 100.359 201.107 99.6432 203.32 98.9922C203.971 101.987 204.362 104.982 204.492 107.977C204.753 110.971 204.883 113.966 204.883 116.961C204.883 123.211 204.557 129.461 203.906 135.711C203.385 141.961 202.799 148.276 202.148 154.656C201.888 157.521 201.758 160.385 201.758 163.25C201.758 166.115 201.628 169.044 201.367 172.039C201.237 173.471 200.977 175.034 200.586 176.727C200.326 178.419 200.13 179.982 200 181.414L197.656 201.922C197.005 202.182 196.81 202.703 197.07 203.484C195.898 205.438 194.531 207.13 192.969 208.562C191.406 209.865 190.625 211.753 190.625 214.227C190.625 216.961 191.211 218.979 192.383 220.281C193.685 221.453 194.792 223.081 195.703 225.164C195.312 229.07 195.052 233.172 194.922 237.469C194.922 241.766 194.792 246.062 194.531 250.359C194.271 254.526 193.815 258.693 193.164 262.859C192.643 267.026 191.667 270.997 190.234 274.773C189.323 276.987 188.672 279.135 188.281 281.219C188.021 283.302 187.891 285.451 187.891 287.664C187.891 289.227 187.956 290.789 188.086 292.352C188.216 294.044 188.411 295.737 188.672 297.43C189.062 298.602 189.258 299.969 189.258 301.531C189.258 302.052 189.128 302.573 188.867 303.094C188.607 303.615 188.477 304.201 188.477 304.852C188.477 305.242 188.542 305.568 188.672 305.828C190.104 307.651 191.406 309.018 192.578 309.93C193.75 310.841 195.247 312.013 197.07 313.445C198.112 313.445 198.698 312.859 198.828 311.688C199.089 310.646 199.479 309.799 200 309.148C202.214 309.409 203.776 310.385 204.688 312.078C205.99 311.036 207.292 310.125 208.594 309.344C209.896 308.693 211.198 307.977 212.5 307.195C212.76 306.023 212.891 304.852 212.891 303.68V300.359C212.891 298.927 212.826 297.56 212.695 296.258C212.695 295.086 212.63 293.784 212.5 292.352C212.76 291.31 212.956 290.268 213.086 289.227C213.346 288.185 213.607 287.078 213.867 285.906C213.216 284.604 212.891 282.846 212.891 280.633V277.312C212.891 276.271 212.76 275.229 212.5 274.188C213.411 271.323 213.997 268.133 214.258 264.617C214.518 261.232 214.714 257.846 214.844 254.461C215.104 250.945 215.43 247.56 215.82 244.305C216.211 241.049 216.992 238.12 218.164 235.516C219.206 235.906 220.247 236.232 221.289 236.492C222.461 236.753 223.633 236.883 224.805 236.883H226.367L227.93 236.492C228.971 237.404 230.013 238.185 231.055 238.836C232.227 239.487 233.268 240.268 234.18 241.18C234.31 240.659 234.766 240.398 235.547 240.398C235.938 240.398 236.393 240.464 236.914 240.594C237.435 240.724 237.891 240.724 238.281 240.594C240.885 242.026 243.49 243.263 246.094 244.305L254.102 247.234C256.836 248.146 259.505 249.122 262.109 250.164C264.844 251.206 267.448 252.443 269.922 253.875C271.745 253.745 273.503 254.201 275.195 255.242C276.888 256.154 278.385 257.065 279.688 257.977C280.99 258.888 282.552 259.604 284.375 260.125C286.198 260.646 288.086 261.102 290.039 261.492C291.992 262.013 293.88 262.534 295.703 263.055C297.656 263.706 299.349 264.617 300.781 265.789H301.953C304.036 265.789 306.25 266.18 308.594 266.961C311.068 267.742 313.346 268.589 315.43 269.5C317.434 270.325 319.225 271.097 320.802 271.816ZM120.19 111.887C120.361 111.82 120.532 111.754 120.703 111.688C124.609 110.125 128.385 108.237 132.031 106.023C132.422 106.154 133.008 106.219 133.789 106.219C135.091 106.219 136.263 106.023 137.305 105.633C138.346 105.242 139.388 104.786 140.43 104.266C141.471 103.745 142.513 103.289 143.555 102.898C144.596 102.508 145.833 102.378 147.266 102.508C151.693 100.034 156.38 98.0156 161.328 96.4531C166.276 94.8906 170.964 92.7422 175.391 90.0078C176.042 90.0078 176.562 90.138 176.953 90.3984C177.474 90.6589 177.995 90.7891 178.516 90.7891C179.036 90.7891 179.362 90.724 179.492 90.5938C180.273 89.5521 181.315 88.8359 182.617 88.4453C183.919 87.9245 185.221 87.5339 186.523 87.2734C187.956 86.8828 189.258 86.4271 190.43 85.9062C191.732 85.2552 192.578 84.2786 192.969 82.9766C193.62 83.4974 194.596 83.7578 195.898 83.7578C198.112 83.7578 200.13 83.3021 201.953 82.3906C203.906 81.4792 205.99 81.0234 208.203 81.0234C208.724 81.0234 209.18 81.1536 209.57 81.4141C210.091 81.5443 210.612 81.6094 211.133 81.6094C212.174 81.6094 212.695 81.2839 212.695 80.6328C212.826 79.9818 213.216 79.3958 213.867 78.875C221.81 77.4427 229.688 76.1406 237.5 74.9688C245.443 73.7969 253.451 73.2109 261.523 73.2109C262.695 72.4297 263.997 72.0391 265.43 72.0391C266.862 72.0391 268.164 72.4297 269.336 73.2109C271.549 72.9505 273.763 72.7552 275.977 72.625C278.19 72.4948 280.404 72.4297 282.617 72.4297C287.695 72.4297 292.904 72.7552 298.242 73.4062C303.581 74.0573 308.854 75.099 314.062 76.5312C316.451 77.1139 318.788 77.8009 321.073 78.5921C289.755 31.2361 236.025 0 175 0C109.942 0 53.1756 35.5009 23.0163 88.1874C24.0682 88.1015 25.12 87.927 26.1719 87.6641C27.7344 87.1432 29.1667 86.6224 30.4688 86.1016C31.7708 85.5807 32.9427 85.125 33.9844 84.7344C35.026 84.2135 35.7422 83.9531 36.1328 83.9531C36.7839 83.9531 37.4349 84.1484 38.0859 84.5391C38.737 84.7995 39.388 84.9297 40.0391 84.9297C41.3411 84.9297 42.5781 84.5391 43.75 83.7578C45.0521 82.9766 46.224 82.1953 47.2656 81.4141C48.3073 81.9349 49.2839 82.1953 50.1953 82.1953C52.0182 82.1953 53.8411 81.6745 55.6641 80.6328C57.6172 79.5911 59.7005 79.0703 61.9141 79.0703C62.8255 79.0703 63.5417 79.1354 64.0625 79.2656C67.0573 77.8333 70.638 76.5312 74.8047 75.3594C79.1016 74.1875 82.9427 73.6016 86.3281 73.6016C88.151 72.0391 90.2995 70.9323 92.7734 70.2812C95.2474 69.6302 97.7865 69.1094 100.391 68.7188C102.995 68.3281 105.534 67.8073 108.008 67.1562C110.612 66.5052 112.956 65.3984 115.039 63.8359C115.69 64.0964 116.471 64.2917 117.383 64.4219C118.294 64.4219 118.945 64.6823 119.336 65.2031C119.987 64.9427 120.443 64.487 120.703 63.8359C120.964 63.1849 121.159 62.5339 121.289 61.8828C121.419 61.7526 121.68 61.6875 122.07 61.6875C122.721 61.6875 122.982 61.9479 122.852 62.4688C122.721 62.9896 122.982 63.25 123.633 63.25C124.023 63.25 124.674 63.0547 125.586 62.6641C126.628 62.1432 127.865 61.6224 129.297 61.1016C130.729 60.5807 132.292 60.125 133.984 59.7344C135.677 59.2135 137.305 58.9531 138.867 58.9531H139.648L140.625 58.7578C141.276 58.4974 141.992 58.3021 142.773 58.1719C143.555 57.9115 144.271 57.651 144.922 57.3906C145.703 57.1302 146.224 57 146.484 57C149.349 56.0885 152.279 55.3073 155.273 54.6562C158.398 54.0052 161.458 53.6797 164.453 53.6797C167.318 53.6797 169.987 54.2005 172.461 55.2422C174.935 56.1536 177.018 57.8464 178.711 60.3203L173.242 65.7891C171.419 67.4818 169.987 69.6302 168.945 72.2344C167.383 72.4948 165.755 72.8203 164.062 73.2109C162.37 73.6016 160.742 73.7969 159.18 73.7969C158.138 73.7969 157.096 73.6667 156.055 73.4062C155.013 73.0156 153.971 72.8203 152.93 72.8203C152.018 72.8203 151.562 73.276 151.562 74.1875C151.562 75.099 151.302 75.8151 150.781 76.3359C149.74 75.9453 148.633 75.6849 147.461 75.5547C146.289 75.4245 145.117 75.3594 143.945 75.3594C141.211 75.3594 138.477 75.8151 135.742 76.7266C133.138 77.5078 130.534 78.4844 127.93 79.6562C125.326 80.6979 122.721 81.8047 120.117 82.9766C117.513 84.1484 114.844 85.0599 112.109 85.7109C112.24 85.8411 112.305 86.1667 112.305 86.6875C112.305 87.599 112.044 88.3802 111.523 89.0312C111.003 89.5521 110.742 90.2682 110.742 91.1797V91.7656C112.305 95.151 113.867 98.4062 115.43 101.531C116.992 104.656 118.49 107.911 119.922 111.297C120.013 111.494 120.102 111.691 120.19 111.887ZM328.711 105.438C329.362 106.349 329.688 107.586 329.688 109.148C329.688 111.232 329.232 113.185 328.32 115.008C327.409 116.831 326.367 118.654 325.195 120.477C324.023 122.299 322.786 124.122 321.484 125.945C320.312 127.638 319.466 129.396 318.945 131.219C312.956 136.688 306.706 141.831 300.195 146.648C293.685 151.466 287.305 156.609 281.055 162.078C280.013 162.339 279.167 162.794 278.516 163.445C277.865 163.966 276.888 164.227 275.586 164.227C274.544 165.659 273.242 166.831 271.68 167.742C270.247 168.654 269.01 169.826 267.969 171.258C263.802 172.69 259.831 174.448 256.055 176.531C252.279 178.615 248.503 180.763 244.727 182.977C240.951 185.06 237.109 187.013 233.203 188.836C229.297 190.659 225.195 192.026 220.898 192.938C221.159 184.344 221.68 175.815 222.461 167.352C223.372 158.888 224.219 150.359 225 141.766C225.26 138.771 225.456 135.841 225.586 132.977C225.716 130.112 225.911 127.182 226.172 124.188V120.477C226.172 119.044 226.302 117.742 226.562 116.57C226.693 115.789 226.888 115.008 227.148 114.227C227.409 113.445 227.604 112.664 227.734 111.883C228.125 109.93 228.385 107.977 228.516 106.023C228.646 104.07 228.711 102.117 228.711 100.164V97.625C228.711 96.7135 228.646 95.8021 228.516 94.8906C229.427 94.6302 230.469 94.2396 231.641 93.7188C232.943 93.1979 234.245 92.7422 235.547 92.3516C236.849 91.8307 238.086 91.375 239.258 90.9844C240.43 90.4635 241.341 90.138 241.992 90.0078C243.294 89.7474 244.727 89.6172 246.289 89.6172C247.852 89.6172 249.349 89.5521 250.781 89.4219L260.938 88.6406C264.323 88.3802 267.708 88.25 271.094 88.25C272.917 88.25 274.674 88.3151 276.367 88.4453C278.19 88.5755 280.013 88.7708 281.836 89.0312C282.617 89.1615 283.398 89.3568 284.18 89.6172C285.091 89.7474 285.938 89.8776 286.719 90.0078H291.016C292.708 90.0078 294.401 90.2031 296.094 90.5938C297.786 90.8542 299.479 91.1797 301.172 91.5703C304.557 92.4818 307.878 93.5885 311.133 94.8906C314.388 96.1927 317.708 97.3646 321.094 98.4062C321.875 99.4479 322.721 100.294 323.633 100.945C324.674 101.596 325.651 102.312 326.562 103.094C327.474 103.745 328.19 104.526 328.711 105.438Z" fill="#D9D9D9"/>
</svg>
