<svg width="350" height="350" viewBox="0 0 350 350" fill="none" xmlns="http://www.w3.org/2000/svg">
<path fill-rule="evenodd" clip-rule="evenodd" d="M175 350C271.65 350 350 271.65 350 175C350 78.3502 271.65 0 175 0C78.3502 0 0 78.3502 0 175C0 271.65 78.3502 350 175 350ZM67.5337 269.018C68.1196 276.195 71.0493 281.542 76.3228 285.058C83.061 289.452 88.9937 291.21 94.1206 290.331C99.2476 289.452 103.715 286.669 107.524 281.981C111.333 277.44 114.555 271.435 117.192 263.964C119.829 256.493 122.026 248.51 123.784 240.014C125.542 231.371 126.933 222.582 127.958 213.646C129.13 204.711 130.009 196.435 130.595 188.817C131.328 181.2 131.914 174.755 132.353 169.481C132.792 164.062 133.305 160.619 133.891 159.154C135.209 154.76 137.7 151.171 141.362 148.388C145.024 145.604 149.125 143.261 153.667 141.356C158.208 139.452 162.749 137.841 167.29 136.522C171.121 135.325 174.511 134.177 177.462 133.078C176.947 134.321 176.632 135.543 176.518 136.742C176.225 139.672 177.763 142.162 181.132 144.213C183.623 143.627 186.259 142.309 189.042 140.258C191.972 138.061 194.829 135.717 197.612 133.227C200.395 130.59 202.958 128.173 205.302 125.976C207.792 123.778 209.917 122.24 211.674 121.361C211.674 122.24 211.601 123.778 211.455 125.976V133.007V139.818C211.601 141.869 211.674 143.334 211.674 144.213C211.674 146.85 211.748 150.878 211.894 156.298C212.041 161.571 212.187 167.577 212.333 174.315C212.626 181.054 212.919 188.158 213.212 195.629C213.505 203.1 213.725 210.277 213.872 217.162C214.165 223.9 214.384 229.979 214.531 235.399L215.19 247.265C215.922 248.437 216.948 249.535 218.266 250.561C219.731 251.586 221.269 251.732 222.88 251C224.785 250.121 226.25 248.656 227.275 246.605C228.3 244.408 229.033 242.138 229.472 239.794C229.912 237.304 230.205 234.96 230.351 232.763C230.498 230.565 230.571 229.027 230.571 228.148C232.915 230.492 236.577 231.737 241.557 231.884C246.684 232.03 252.397 231.444 258.696 230.126C265.141 228.808 271.806 226.903 278.691 224.413C285.722 221.923 292.46 219.14 298.906 216.063C305.351 212.841 311.137 209.545 316.264 206.176C321.391 202.807 325.2 199.584 327.69 196.508C330.327 193.432 331.352 190.648 330.766 188.158C330.18 185.668 327.324 183.764 322.197 182.445C319.121 185.521 315.312 188.817 310.771 192.333C306.376 195.849 301.616 199.218 296.489 202.44C291.362 205.517 286.088 208.373 280.668 211.01C275.249 213.5 270.048 215.331 265.068 216.503C255.253 217.675 248.295 217.162 244.194 214.965C240.092 212.768 237.968 209.398 237.822 204.857C237.675 200.316 238.994 194.896 241.777 188.598C244.56 182.152 247.929 175.341 251.884 168.163C255.839 160.839 259.941 153.295 264.189 145.531C268.437 137.768 271.879 130.297 274.516 123.119C277.153 115.941 278.544 109.203 278.691 102.904C278.837 96.6055 276.86 91.332 272.758 87.084C270.561 85.9121 267.192 85.6191 262.651 86.2051C258.256 86.6445 253.129 87.8164 247.27 89.7207C241.557 91.4785 235.478 93.749 229.033 96.5322C222.587 99.3154 216.289 102.392 210.136 105.761C204.13 109.13 198.564 112.646 193.437 116.308C189.313 119.34 185.841 122.323 183.023 125.255C182.829 124.747 182.565 124.255 182.231 123.778C181.352 122.313 179.887 121.215 177.836 120.482C175.932 119.75 173.955 119.896 171.904 120.922L133.891 140.038C130.522 132.274 128.178 124.218 126.86 115.868C125.542 107.372 125.322 98.9492 126.201 90.5996C127.519 90.1602 129.936 89.4277 133.452 88.4023C137.114 87.2305 140.996 86.0586 145.097 84.8867C149.199 83.5684 153.007 82.3965 156.523 81.3711C160.185 80.3457 162.749 79.6133 164.213 79.1738C165.971 78.7344 167.729 78.4414 169.487 78.2949C171.245 78.1484 172.709 77.7822 173.881 77.1963C175.2 76.6104 176.079 75.6582 176.518 74.3398C176.958 72.875 176.665 70.6045 175.639 67.5283H164.213L38.3101 109.496C36.4058 110.229 35.1606 111.327 34.5747 112.792C34.1353 114.257 34.2085 115.722 34.7944 117.187C35.3804 118.651 36.3325 119.823 37.6509 120.702C38.9692 121.581 40.5073 121.654 42.2651 120.922L103.129 98.29C104.741 97.5576 106.206 97.6309 107.524 98.5098C108.989 99.3887 110.087 100.487 110.82 101.806L112.358 111.034C113.237 115.282 114.042 119.896 114.775 124.877C115.654 129.711 116.386 134.325 116.972 138.72C117.705 142.968 118.217 145.971 118.51 147.729C118.657 148.314 118.73 149.633 118.73 151.684C118.73 153.588 118.657 154.833 118.51 155.419C116.313 157.763 113.017 162.157 108.623 168.603C104.228 174.901 99.5405 182.226 94.5601 190.575C89.7261 198.925 85.0386 207.934 80.4976 217.602C76.103 227.123 72.6606 236.278 70.1704 245.067C67.8267 253.856 66.9478 261.84 67.5337 269.018ZM90.8247 277.587C88.3345 278.905 86.064 277.514 84.0132 273.412C82.8413 264.623 82.8413 255.541 84.0132 246.166C85.1851 236.791 87.3091 227.636 90.3853 218.7C93.4614 209.618 97.3433 200.976 102.031 192.772C106.865 184.423 112.358 177.025 118.51 170.58C118.657 172.045 118.73 174.608 118.73 178.271V201.342C118.73 204.857 118.657 207.274 118.51 208.593C118.364 210.058 117.705 213.207 116.533 218.041C115.361 222.875 113.823 228.368 111.918 234.521C110.161 240.673 108.11 246.898 105.766 253.197C103.422 259.643 100.932 264.989 98.2954 269.237C95.8052 273.632 93.3149 276.415 90.8247 277.587ZM267.265 108.617L226.835 198.925L226.176 118.065C226.176 116.308 227.055 114.403 228.813 112.353C230.571 110.155 232.768 108.178 235.405 106.42C238.188 104.516 241.191 102.904 244.414 101.586C247.636 100.268 250.786 99.6084 253.862 99.6084C256.938 99.4619 259.648 100.121 261.992 101.586C264.482 102.904 266.24 105.248 267.265 108.617Z" fill="#D9D9D9"/>
</svg>
