<svg width="350" height="350" viewBox="0 0 350 350" fill="none" xmlns="http://www.w3.org/2000/svg">
<path fill-rule="evenodd" clip-rule="evenodd" d="M337.365 240.414C345.514 220.206 350 198.127 350 175C350 149.691 344.627 125.636 334.96 103.915C334.75 108.59 332.923 113.119 329.48 117.5C325.814 121.833 321.98 125.167 317.98 127.5C314.314 129.833 308.98 133 301.98 137C295.314 140.667 290.98 143.167 288.98 144.5C282.314 148.5 260.814 159.5 224.48 177.5C239.147 191.167 256.147 203 275.48 213C292.762 221.494 313.39 230.632 337.365 240.414ZM326.01 263.491C325.008 263.006 323.998 262.509 322.98 262C313.98 257 307.48 253.833 303.48 252.5C295.48 249.833 278.647 240.833 252.98 225.5C227.647 209.833 211.647 202.167 204.98 202.5C198.98 202.833 195.48 206.5 194.48 213.5C193.48 220.167 192.98 228.333 192.98 238C193.314 247.333 192.147 254.167 189.48 258.5C186.814 258.833 182.647 259.5 176.98 260.5C175.98 257.167 175.147 253.833 174.48 250.5C173.814 246.833 173.147 242.667 172.48 238C172.147 233 171.814 229.167 171.48 226.5C171.147 223.833 170.814 219.5 170.48 213.5V201V186.5V173C170.48 167 169.98 158.667 168.98 148C167.98 137.333 167.48 128 167.48 120C167.668 115.509 168.17 111.228 168.987 107.158C168.507 107.107 168.021 107.055 167.527 107C161.527 106.333 156.861 106 153.527 106C150.527 106 147.861 106.5 145.527 107.5C143.527 108.5 141.861 109.5 140.527 110.5C139.527 111.167 138.694 112.833 138.027 115.5C137.694 118.167 137.361 120.167 137.027 121.5V129.5V137.5C136.694 171.833 134.861 199 131.527 219C128.527 239 121.527 257.167 110.527 273.5C95.5664 295.443 78.9475 306.774 60.6706 307.495C91.338 333.981 131.298 350 175 350C239.365 350 295.614 315.252 326.01 263.491ZM22.2029 260.376C8.06161 235.121 0 206.002 0 175C0 146.669 6.73224 119.911 18.6842 96.2369C21.0277 106.412 29.6421 111.5 44.5273 111.5C48.5274 111.5 54.3607 111.167 62.0274 110.5C69.694 109.833 76.0274 109.5 81.0273 109.5C86.0274 109.167 91.194 109.333 96.5274 110C102.194 110.667 106.361 112.667 109.027 116C112.027 119.333 113.527 124 113.527 130C113.861 191 104.527 234.5 85.5273 260.5C81.194 266.833 76.8607 271.5 72.5274 274.5C68.5273 277.5 63.5273 279 57.5274 279C50.8607 279 43.8607 276.667 36.5273 272C31.3347 268.46 26.5599 264.585 22.2029 260.376ZM28.4084 79.3811C30.9005 79.2302 33.2735 79.4365 35.5274 80C38.5273 80.3333 41.8607 80.8333 45.5274 81.5C49.194 82.1667 52.0274 82.5 54.0274 82.5C55.0273 82.5 57.8607 82.6667 62.5274 83H73.5274C76.5274 82.6667 79.8607 82.5 83.5273 82.5C87.5274 82.1667 90.694 81.8333 93.0274 81.5C95.694 80.8333 97.5273 80 98.5273 79C100.194 77.3333 101.027 72.3333 101.027 64C101.361 55.3333 100.861 48.8333 99.5273 44.5C99.5273 38.1666 102.694 35 109.027 35C113.694 35.3333 117.361 37.5 120.027 41.5C122.694 45.5 124.527 50 125.527 55C126.527 59.6667 128.194 64.3333 130.527 69C133.194 73.3333 136.694 76 141.027 77C145.361 78 159.027 78.5 182.027 78.5C189.694 78.5 196.027 79.5 201.027 81.5C203.7 82.3353 205.661 83.5891 206.911 85.2616C214.109 85.1525 222.466 85.232 231.98 85.5C255.98 86.1666 271.98 85.1667 279.98 82.5C282.98 82.8333 287.48 83.1667 293.48 83.5C299.48 83.8333 304.48 84.3333 308.48 85C312.48 85.6667 316.647 86.5 320.98 87.5C323.779 88.0996 326.158 88.9989 328.117 90.1978C298.261 36.406 240.882 0 175 0C113.636 0 59.6496 31.5834 28.4084 79.3811ZM201.98 123C216.98 108.333 248.147 104.167 295.48 110.5C279.147 123.5 263.814 133.833 249.48 141.5C235.48 148.833 219.314 154.333 200.98 158C200.98 157.333 200.48 155.167 199.48 151.5C198.814 147.5 198.314 144.667 197.98 143V136C197.98 132.667 198.314 130.167 198.98 128.5C199.647 126.5 200.647 124.667 201.98 123Z" fill="#D9D9D9"/>
</svg>
